<svg width="108" height="30" viewBox="0 0 108 30" fill="none" xmlns="http://www.w3.org/2000/svg">
<path d="M32.0803 15.2942C32.0572 15.1598 32.0373 15.0351 32.0109 14.9136C31.9944 14.8304 31.9811 14.744 31.9778 14.6513C31.9712 14.5458 31.9712 14.4562 31.9712 14.3794V10.4103C31.9712 9.50198 31.6738 8.79835 31.0855 8.3186C30.517 7.85484 29.6941 7.61816 28.6365 7.61816C28.1772 7.61816 27.6814 7.67893 27.1559 7.80367C26.6404 7.9252 26.1644 8.07872 25.748 8.25783L25.4043 8.40495L26.2041 10.1033L26.8915 9.86019C27.0403 9.80582 27.2088 9.75465 27.3939 9.70028C27.5723 9.6491 27.7673 9.60753 27.9656 9.57235C28.3226 9.51478 28.6498 9.50838 29.0265 9.55955C29.1719 9.57874 29.3041 9.61712 29.4165 9.67469C29.519 9.72586 29.6016 9.79303 29.671 9.88258C29.7239 9.94975 29.7503 10.0553 29.7503 10.1992C29.7503 10.3048 29.714 10.3559 29.6776 10.3911C29.5917 10.4743 29.4661 10.5446 29.3107 10.6022C29.1257 10.6694 28.9075 10.7301 28.6597 10.7749C28.3887 10.8261 28.1044 10.8837 27.8202 10.9412C27.4732 11.0052 27.1229 11.0884 26.7792 11.1939C26.4156 11.3058 26.0851 11.4626 25.791 11.6609C25.4836 11.8687 25.2291 12.1374 25.0341 12.4604C24.8325 12.7931 24.7334 13.2056 24.7334 13.6822C24.7334 14.1204 24.8359 14.5106 25.0341 14.8432C25.2291 15.1694 25.5035 15.4477 25.8472 15.662C26.1777 15.8731 26.5809 16.0298 27.0369 16.1289C27.4765 16.2249 27.9656 16.276 28.4878 16.276C29.0728 16.276 29.6611 16.2153 30.2361 16.0937C30.7947 15.9754 31.3268 15.8443 31.8192 15.6972L32.1299 15.6076L32.077 15.2974H32.0803V15.2942ZM29.7701 12.3645V14.2099C29.3636 14.3155 28.934 14.3666 28.4911 14.3666C28.0119 14.3666 27.6417 14.2899 27.3906 14.1396C27.189 14.018 27.0964 13.8421 27.0964 13.5703C27.0964 13.4295 27.1262 13.3176 27.1791 13.2376C27.2452 13.1417 27.3344 13.0585 27.4567 12.9914C27.5955 12.9114 27.7607 12.8442 27.9458 12.7931C28.1507 12.7355 28.3721 12.6811 28.5969 12.6331C28.9009 12.5724 29.205 12.5084 29.5024 12.4412C29.595 12.4221 29.6842 12.3965 29.7668 12.3677H29.7701V12.3645Z" fill="#001689"/>
<path d="M39.3785 14.0218C39.1504 14.0985 38.886 14.1785 38.5853 14.2584C38.311 14.332 38.0102 14.3672 37.6863 14.3672C37.3624 14.3672 37.0716 14.3096 36.794 14.1977C36.5164 14.0857 36.2685 13.9226 36.057 13.7147C35.8455 13.5068 35.6736 13.2478 35.5447 12.9503C35.4191 12.6497 35.353 12.3011 35.353 11.9141C35.353 11.6038 35.3993 11.2968 35.4918 10.9961C35.5811 10.7051 35.7133 10.4492 35.8884 10.2317C36.0603 10.0206 36.2817 9.84794 36.5494 9.71361C36.8138 9.58248 37.1344 9.51851 37.5046 9.51851C37.845 9.51851 38.1821 9.56329 38.506 9.64964C38.853 9.74239 39.1372 9.82875 39.352 9.90551L39.6957 10.0302L40.3931 8.25837L40.056 8.12724C39.6495 7.96732 39.2165 7.84258 38.7704 7.74983C38.3209 7.66028 37.8681 7.6123 37.4219 7.6123C36.7643 7.6123 36.1528 7.71785 35.6075 7.92574C35.0589 8.13683 34.583 8.43747 34.1996 8.82447C33.8162 9.20827 33.5122 9.66883 33.3007 10.1998C33.0892 10.7243 32.9834 11.3128 32.9834 11.9428C32.9834 12.6113 33.109 13.219 33.3569 13.7499C33.6047 14.2808 33.9418 14.735 34.3583 15.106C34.7747 15.477 35.2671 15.7649 35.8256 15.9632C36.3776 16.1582 36.9725 16.2606 37.5971 16.2606C38.4564 16.2606 39.2859 16.0911 40.0626 15.7585L40.3865 15.6209L39.709 13.9098L39.3685 14.0282L39.3785 14.0218Z" fill="#001689"/>
<path d="M47.2466 14.0218C47.0186 14.0985 46.7542 14.1785 46.4534 14.2584C46.1791 14.332 45.8784 14.3672 45.5545 14.3672C45.2306 14.3672 44.9398 14.3096 44.6622 14.1977C44.3845 14.0857 44.1367 13.9226 43.9252 13.7147C43.7136 13.5068 43.5418 13.2478 43.4129 12.9503C43.2873 12.6497 43.2212 12.3011 43.2212 11.9141C43.2212 11.6038 43.2675 11.2968 43.36 10.9961C43.4492 10.7051 43.5814 10.4492 43.7566 10.2317C43.9285 10.0206 44.1499 9.84794 44.4176 9.71361C44.682 9.58248 45.0026 9.51851 45.3727 9.51851C45.7131 9.51851 46.0502 9.56329 46.3741 9.64964C46.7211 9.74239 47.0054 9.82875 47.2202 9.90551L47.5639 10.0302L48.2612 8.25837L47.9241 8.12724C47.5176 7.96732 47.0847 7.84258 46.6385 7.74983C46.189 7.66028 45.7363 7.6123 45.2901 7.6123C44.6324 7.6123 44.021 7.71785 43.4757 7.92574C42.9271 8.13683 42.4512 8.43747 42.0678 8.82447C41.6844 9.20827 41.3804 9.66883 41.1688 10.1998C40.9573 10.7243 40.8516 11.3128 40.8516 11.9428C40.8516 12.6113 40.9771 13.219 41.225 13.7499C41.4729 14.2808 41.81 14.735 42.2264 15.106C42.6428 15.477 43.1353 15.7649 43.6938 15.9632C44.2457 16.1582 44.8406 16.2606 45.4653 16.2606C46.3246 16.2606 47.1541 16.0911 47.9308 15.7585L48.2546 15.6209L47.5771 13.9098L47.2367 14.0282L47.2466 14.0218Z" fill="#001689"/>
<path d="M56.3055 10.0492C56.1402 9.56942 55.8891 9.14404 55.5586 8.78582C55.2281 8.42441 54.8149 8.13656 54.3291 7.92867C53.8466 7.72078 53.2914 7.61523 52.68 7.61523C52.019 7.61523 51.4307 7.73677 50.9349 7.97984C50.4392 8.22292 50.0228 8.54915 49.6989 8.95534C49.3816 9.35513 49.1404 9.81889 48.9817 10.337C48.8264 10.8456 48.7471 11.3797 48.7471 11.9298C48.7471 12.5375 48.8462 13.11 49.0445 13.6345C49.2428 14.1654 49.5336 14.6292 49.9071 15.0194C50.2806 15.4096 50.7466 15.7198 51.2919 15.9437C51.8306 16.1644 52.442 16.2763 53.103 16.2763C53.5558 16.2763 54.0118 16.2315 54.4613 16.1484C54.9141 16.062 55.3537 15.9245 55.7668 15.7422L56.094 15.5951L55.357 13.9159L55.0199 14.0439C54.4514 14.2582 53.8499 14.3701 53.2286 14.3701C52.5511 14.3701 52.0454 14.1942 51.6819 13.8328C51.3943 13.5449 51.2093 13.1963 51.1233 12.7773H56.4145L56.4608 12.4703C56.4839 12.3232 56.5038 12.1793 56.5203 12.0321C56.5368 11.8786 56.5467 11.7251 56.5467 11.5812C56.5467 11.0374 56.4641 10.5225 56.3022 10.0524H56.3055V10.0492ZM51.1167 10.9447C51.1398 10.8168 51.1696 10.6952 51.2059 10.5769C51.2787 10.3594 51.3844 10.1675 51.5232 10.0076C51.662 9.84767 51.824 9.72613 52.0223 9.63658C52.214 9.54703 52.442 9.50545 52.6965 9.50545C52.9708 9.50545 53.2021 9.55342 53.3905 9.64618C53.5855 9.74532 53.7408 9.86686 53.8664 10.0236C53.9953 10.1867 54.0945 10.3786 54.1606 10.5929C54.1969 10.7048 54.2234 10.8232 54.2399 10.9415H51.1134L51.1167 10.9447Z" fill="#001689"/>
<path d="M65.1763 10.2287C64.9747 9.70414 64.6805 9.24038 64.2938 8.85018C63.9072 8.45998 63.4279 8.15294 62.8661 7.93546C62.3109 7.72117 61.6796 7.61243 60.9889 7.61243C60.7476 7.61243 60.4865 7.62842 60.2089 7.6604C59.9379 7.69238 59.6636 7.73396 59.3926 7.78514C59.1249 7.83631 58.8605 7.90028 58.6126 7.96744C58.3615 8.0378 58.1301 8.10817 57.9252 8.18173L57.6641 8.27768L57.6873 8.54634C57.6972 8.68387 57.717 8.815 57.7368 8.93334L57.7666 9.22758C57.7765 9.32353 57.7798 9.40669 57.7798 9.47386V19.523H59.9809V16.1296C60.3643 16.2223 60.7377 16.2671 61.098 16.2671C61.7259 16.2671 62.3175 16.1584 62.8529 15.9441C63.3883 15.7266 63.8576 15.4196 64.241 15.0326C64.6243 14.6456 64.9284 14.1818 65.1432 13.6541C65.358 13.1264 65.4704 12.5443 65.4704 11.9238C65.4704 11.3033 65.3713 10.7436 65.173 10.2255L65.1763 10.2287ZM59.9776 9.65936C60.0833 9.62738 60.1924 9.60179 60.3015 9.5794C60.5031 9.53782 60.7344 9.51863 60.9856 9.51863C61.3789 9.51863 61.7094 9.5826 61.9672 9.70733C62.2283 9.83527 62.4431 10.0048 62.6083 10.2127C62.7769 10.427 62.9025 10.6828 62.9818 10.9675C63.0644 11.2713 63.1074 11.5944 63.1074 11.9238C63.1074 12.3044 63.0611 12.653 62.9686 12.9664C62.8793 13.2607 62.7471 13.5133 62.572 13.718C62.4001 13.9163 62.1721 14.0731 61.8945 14.1882C61.6069 14.3065 61.2599 14.3641 60.8567 14.3641C60.6749 14.3641 60.4832 14.3449 60.2849 14.3097C60.1792 14.2905 60.0767 14.265 59.9809 14.2362V9.7649C59.9809 9.72972 59.9809 9.69454 59.9743 9.65616L59.9776 9.65936Z" fill="#001689"/>
<path d="M105.38 8.82118H105.509C105.691 8.82118 105.806 8.81478 105.849 8.80199C105.892 8.7892 105.929 8.76361 105.955 8.73163C105.981 8.69644 105.995 8.65807 105.995 8.61649C105.995 8.57491 105.981 8.53653 105.958 8.50454C105.932 8.47256 105.899 8.44697 105.853 8.43418C105.806 8.42139 105.694 8.41179 105.512 8.41179H105.383V8.82438H105.38V8.82118ZM105.063 9.67833V8.16872H105.38C105.677 8.16872 105.843 8.16872 105.879 8.17192C105.985 8.18151 106.064 8.2007 106.124 8.23269C106.183 8.26467 106.229 8.31265 106.269 8.37661C106.309 8.44058 106.328 8.51414 106.328 8.5941C106.328 8.70284 106.292 8.79559 106.219 8.87235C106.147 8.94911 106.044 8.99709 105.909 9.01628C105.955 9.03227 105.991 9.05146 106.018 9.07385C106.044 9.09304 106.077 9.13142 106.124 9.18899C106.137 9.20498 106.173 9.26575 106.239 9.37129L106.424 9.67513H106.034L105.905 9.42886C105.816 9.26575 105.743 9.1602 105.687 9.11862C105.631 9.07705 105.555 9.05466 105.469 9.05466H105.387V9.67513H105.063V9.67833ZM105.727 7.77533C105.525 7.77533 105.33 7.8233 105.145 7.92245C104.96 8.0216 104.815 8.16232 104.706 8.34463C104.6 8.52693 104.544 8.71883 104.544 8.92033C104.544 9.12182 104.597 9.31052 104.699 9.48963C104.805 9.67194 104.95 9.81266 105.135 9.91181C105.324 10.0142 105.519 10.0653 105.724 10.0653C105.929 10.0653 106.127 10.0142 106.312 9.91181C106.497 9.80946 106.642 9.66874 106.748 9.48963C106.854 9.31052 106.907 9.11862 106.907 8.92033C106.907 8.72203 106.854 8.52693 106.745 8.34463C106.639 8.16232 106.49 8.0216 106.305 7.92245C106.12 7.8233 105.925 7.77533 105.724 7.77533M105.727 7.49707C105.978 7.49707 106.219 7.55784 106.451 7.67938C106.682 7.80091 106.864 7.97682 106.996 8.2039C107.128 8.43098 107.194 8.67086 107.194 8.92033C107.194 9.1698 107.128 9.40328 106.999 9.63036C106.87 9.85424 106.689 10.0301 106.457 10.1549C106.226 10.2796 105.981 10.3436 105.724 10.3436C105.466 10.3436 105.225 10.2796 104.99 10.1549C104.759 10.0301 104.577 9.85424 104.448 9.63036C104.319 9.40647 104.253 9.1698 104.253 8.92033C104.253 8.67086 104.319 8.43418 104.451 8.2039C104.583 7.97682 104.765 7.80091 104.997 7.67938C105.228 7.55784 105.469 7.49707 105.724 7.49707" fill="#001689"/>
<path d="M70.7412 14.121L70.3875 14.2393C70.2124 14.2969 69.9942 14.3576 69.7431 14.4216C69.5117 14.4792 69.2837 14.508 69.0656 14.508C68.8772 14.508 68.7218 14.4728 68.5996 14.396C68.5103 14.3416 68.4971 14.1625 68.4971 14.0634V9.81281H70.8436V7.9066H68.4971V5.82129H66.296V14.121C66.296 14.9109 66.5439 15.5058 67.033 15.8896C67.499 16.2574 68.1336 16.443 68.9201 16.443C69.2804 16.443 69.6472 16.4014 70.0108 16.3182C70.3545 16.2415 70.6916 16.1487 71.0155 16.0432L71.3691 15.928L70.7445 14.1178L70.7412 14.121Z" fill="#001689"/>
<path d="M78.9478 15.2944C78.9247 15.1601 78.9048 15.0354 78.8817 14.9138C78.8652 14.8307 78.8553 14.7411 78.8486 14.6484C78.842 14.5428 78.842 14.4533 78.842 14.3765V10.4074C78.842 9.50225 78.5545 8.79862 77.9828 8.31887C77.4275 7.85191 76.6244 7.61523 75.5933 7.61523C75.1471 7.61523 74.6613 7.6792 74.1523 7.80074C73.65 7.92227 73.1906 8.07579 72.7841 8.2549L72.4503 8.40202L73.2269 10.1035L73.5541 9.9852C73.6401 9.95321 73.7557 9.91164 73.9078 9.85407C74.0532 9.7997 74.2151 9.74852 74.3969 9.69415C74.572 9.64298 74.7571 9.6014 74.9488 9.56622C75.2958 9.50865 75.6065 9.50225 75.9733 9.55342C76.1122 9.57261 76.2377 9.61099 76.3468 9.66536C76.446 9.71654 76.5253 9.7837 76.5914 9.87326C76.6409 9.94042 76.6707 10.0524 76.6707 10.1931C76.6707 10.305 76.631 10.3562 76.598 10.3882C76.5154 10.4681 76.3964 10.5385 76.2443 10.5961C76.0659 10.6632 75.8544 10.7208 75.6164 10.7688C75.352 10.82 75.0777 10.8775 74.8001 10.9351C74.463 10.9991 74.1226 11.0854 73.7888 11.191C73.4352 11.3029 73.1113 11.4596 72.8237 11.6579C72.523 11.8658 72.2751 12.1345 72.0867 12.4575C71.8917 12.7901 71.7959 13.1995 71.7959 13.6761C71.7959 14.1142 71.895 14.5012 72.0867 14.8339C72.2784 15.1601 72.5428 15.4384 72.8799 15.6558C73.2038 15.8669 73.5938 16.0236 74.04 16.126C74.4696 16.2219 74.9455 16.2731 75.4545 16.2731C76.0229 16.2731 76.5947 16.2124 77.1565 16.0908C77.6985 15.9725 78.2174 15.8381 78.6933 15.6942L78.9974 15.6015L78.9478 15.2944ZM76.6839 12.3712V14.2134C76.2939 14.3157 75.8808 14.3669 75.4512 14.3669C74.9918 14.3669 74.6348 14.2902 74.3936 14.143C74.2614 14.0631 74.1094 13.9223 74.1094 13.5705C74.1094 13.4298 74.1358 13.3147 74.192 13.2315C74.2548 13.1356 74.344 13.0556 74.4597 12.9852C74.5952 12.9053 74.7538 12.8381 74.929 12.7869C75.1273 12.7294 75.3421 12.675 75.5602 12.627C75.8577 12.5663 76.1485 12.5023 76.4393 12.4351C76.5253 12.4159 76.6046 12.3935 76.6806 12.368L76.6839 12.3712Z" fill="#001689"/>
<path d="M87.3295 9.21479C87.1477 8.83419 86.8866 8.51436 86.5561 8.27128C86.2322 8.03461 85.8489 7.8619 85.4126 7.75955C84.9995 7.6604 84.5467 7.61243 84.0675 7.61243C83.4594 7.61243 82.8447 7.69558 82.2366 7.8619C81.6516 8.02181 81.0765 8.20732 80.5345 8.41201L80.28 8.50796L80.2999 8.77342C80.3098 8.91415 80.3296 9.05487 80.3527 9.1892C80.3726 9.28835 80.3858 9.3939 80.3957 9.49944C80.4056 9.60819 80.4089 9.69774 80.4089 9.7649V16.104H82.567V9.93442C82.567 9.89604 82.567 9.85126 82.5571 9.79369C82.7587 9.72333 82.9669 9.66256 83.1752 9.61778C83.4627 9.55381 83.7502 9.52183 84.0344 9.52183C84.5071 9.52183 84.8508 9.62738 85.092 9.84806C85.3267 10.0623 85.439 10.3918 85.439 10.8491V16.1072H87.5972V10.5901C87.5972 10.0528 87.5079 9.589 87.3262 9.21479H87.3295Z" fill="#001689"/>
<path d="M94.6592 14.0248C94.4411 14.1015 94.1833 14.1815 93.8925 14.2583C93.6281 14.3286 93.3372 14.367 93.0266 14.367C92.7159 14.367 92.435 14.3094 92.1673 14.1975C91.8996 14.0856 91.6616 13.9224 91.4534 13.7146C91.2485 13.5067 91.08 13.2476 90.9577 12.947C90.8354 12.6463 90.7726 12.2977 90.7726 11.9075C90.7726 11.5973 90.8189 11.287 90.9081 10.9864C90.994 10.6953 91.1229 10.4395 91.2948 10.222C91.46 10.0109 91.6748 9.83817 91.9326 9.70704C92.1871 9.57911 92.4945 9.51194 92.8514 9.51194C93.1819 9.51194 93.5058 9.55672 93.8164 9.64307C94.1535 9.73583 94.4279 9.82218 94.6361 9.89894L94.9864 10.0269L95.6639 8.2518L95.3334 8.11747C94.9368 7.95755 94.5171 7.82962 94.0808 7.74007C93.6413 7.65051 93.2017 7.60254 92.7688 7.60254C92.1276 7.60254 91.5327 7.70808 91.0006 7.91917C90.4652 8.13026 90.0025 8.43411 89.6291 8.8179C89.2556 9.2017 88.9615 9.66226 88.7566 10.1932C88.5517 10.7177 88.4492 11.303 88.4492 11.9331C88.4492 12.5983 88.5715 13.206 88.8095 13.7369C89.0474 14.2679 89.3746 14.722 89.7844 15.093C90.1909 15.464 90.6701 15.7519 91.2121 15.9502C91.7509 16.1485 92.3325 16.2476 92.9406 16.2476C93.7768 16.2476 94.5832 16.0781 95.3433 15.7423L95.6573 15.6048L94.9996 13.8905L94.6526 14.012L94.6592 14.0248Z" fill="#001689"/>
<path d="M103.474 10.0524C103.312 9.57261 103.068 9.14724 102.751 8.78902C102.427 8.42761 102.027 8.13656 101.554 7.92867C101.082 7.72078 100.543 7.61523 99.9447 7.61523C99.3002 7.61523 98.7285 7.73997 98.2426 7.98304C97.7601 8.22612 97.3536 8.55554 97.0396 8.96173C96.7323 9.36152 96.4976 9.82528 96.3423 10.3402C96.1936 10.8455 96.1143 11.3829 96.1143 11.9298C96.1143 12.5375 96.2101 13.11 96.4018 13.6313C96.5968 14.159 96.8777 14.626 97.2379 15.013C97.6015 15.4064 98.0543 15.7166 98.5831 15.9405C99.1085 16.1612 99.7034 16.2731 100.351 16.2731C100.794 16.2731 101.237 16.2283 101.673 16.1452C102.116 16.0588 102.542 15.9213 102.946 15.739L103.266 15.5919L102.549 13.9096L102.205 14.0439C101.657 14.2582 101.072 14.3669 100.473 14.3669C99.8191 14.3669 99.3333 14.191 98.9829 13.8328C98.702 13.5449 98.5236 13.1963 98.4409 12.7741H103.58L103.626 12.4639C103.65 12.3168 103.666 12.1729 103.683 12.0257C103.699 11.8722 103.709 11.7187 103.709 11.578C103.709 11.0374 103.63 10.5225 103.471 10.0524H103.474ZM98.4343 10.9447C98.4542 10.8168 98.4839 10.692 98.5236 10.5737C98.593 10.3562 98.6954 10.1643 98.8342 10.0044C98.9697 9.84447 99.1251 9.72613 99.3134 9.63658C99.4985 9.55023 99.7133 9.50545 99.9612 9.50545C100.222 9.50545 100.447 9.55342 100.626 9.64617C100.814 9.74212 100.963 9.86686 101.085 10.0236C101.21 10.1867 101.306 10.3786 101.372 10.5961C101.409 10.7112 101.432 10.8264 101.452 10.9479H98.4343V10.9447Z" fill="#001689"/>
<path d="M67.718 19.6578C67.3577 19.6578 67.1363 19.4211 67.2156 19.0661C67.2916 18.7271 67.6221 18.4648 67.9824 18.4648C68.3426 18.4648 68.5773 18.7271 68.5013 19.0661C68.4219 19.4211 68.0716 19.6578 67.718 19.6578ZM67.1396 24.7464H66.082L67.0173 20.5118H68.0749L67.1396 24.7464Z" fill="#4C9C2E"/>
<path d="M72.2364 24.746H71.1788L71.7671 22.0882C71.8827 21.5701 71.5886 21.3078 71.0664 21.3078C70.7657 21.3078 70.4418 21.391 70.1377 21.4933C70.1377 21.4933 70.1278 21.6117 70.1179 21.6724L69.4404 24.746H68.3828L69.1132 21.4357C69.1595 21.2311 69.1826 20.8441 69.1826 20.8441C69.8469 20.633 70.6236 20.4219 71.2746 20.4219C72.3487 20.4219 73.1188 20.7609 72.861 21.9283L72.2397 24.7492H72.2364V24.746Z" fill="#4C9C2E"/>
<path d="M74.4861 24.8381C73.9838 24.8381 73.5012 24.7197 73.0947 24.5598L73.5773 23.7634C73.8582 23.8914 74.2415 24.0161 74.5786 24.0161C74.9158 24.0161 75.2694 23.9233 75.352 23.5491C75.5173 22.7943 73.5508 23.0246 73.8549 21.6365C74.0466 20.7634 75.0579 20.418 75.7519 20.418C76.2179 20.418 76.6608 20.5203 76.9615 20.6706L76.4889 21.4574C76.2311 21.3551 75.8643 21.2623 75.5635 21.2623C75.2991 21.2623 75.0017 21.3391 74.9323 21.6429C74.7736 22.353 76.8524 22.0331 76.5153 23.5651C76.3071 24.5054 75.2826 24.8349 74.4828 24.8349" fill="#4C9C2E"/>
<path d="M78.9909 24.8391C77.9168 24.8391 77.1467 24.5 77.4045 23.3326L78.0258 20.5117H79.0834L78.4951 23.1695C78.3795 23.6845 78.6736 23.9499 79.1958 23.9499C79.4965 23.9499 79.8204 23.8636 80.1245 23.7644C80.1245 23.7644 80.1344 23.6461 80.1476 23.5853L80.8251 20.5117H81.8827L81.1523 23.822C81.106 24.0267 81.0829 24.4137 81.0829 24.4137C80.4186 24.6248 79.642 24.8359 78.9909 24.8359" fill="#4C9C2E"/>
<path d="M85.3066 21.3844C85.1744 21.3428 84.9364 21.2981 84.7447 21.2981C84.4803 21.2981 84.1994 21.3332 83.9284 21.4068C83.9284 21.4068 83.9284 21.4676 83.9185 21.49L83.2013 24.7427H82.1437L82.8576 21.5155C82.9039 21.3045 82.9171 20.8791 82.9171 20.8791C83.6078 20.6264 84.3316 20.4121 85.0256 20.4121C85.3 20.4121 85.6007 20.4473 85.8155 20.5049L85.3066 21.378V21.3844Z" fill="#4C9C2E"/>
<path d="M87.9182 23.7123L88.1495 22.6696C87.7166 22.999 86.54 22.8647 86.4045 23.4756C86.3087 23.9169 86.7317 23.9937 87.1085 23.9937C87.363 23.9937 87.6373 23.9521 87.9017 23.8754C87.9017 23.8754 87.905 23.773 87.9182 23.7155M86.9135 24.8381C86.0674 24.8381 85.0065 24.5406 85.228 23.5523C85.6047 21.8412 88.2057 22.4265 88.3677 21.6909C88.447 21.3359 87.9777 21.3007 87.7133 21.3007C87.3167 21.3007 86.8375 21.4031 86.4343 21.5534L86.2426 20.7826C86.811 20.5555 87.4852 20.418 88.057 20.418C88.9989 20.418 89.6136 20.8146 89.3988 21.7996L88.9196 23.9745C88.8799 24.1536 88.8634 24.5086 88.8634 24.5086C88.2156 24.6877 87.5579 24.8381 86.9168 24.8381" fill="#4C9C2E"/>
<path d="M93.7811 24.746H92.7235L93.3118 22.0882C93.4275 21.5701 93.1333 21.3078 92.6112 21.3078C92.3104 21.3078 91.9865 21.391 91.6825 21.4933C91.6825 21.4933 91.6726 21.6117 91.6626 21.6724L90.9851 24.746H89.9276L90.6579 21.4357C90.7042 21.2311 90.7273 20.8441 90.7273 20.8441C91.3916 20.633 92.1683 20.4219 92.8194 20.4219C93.8935 20.4219 94.6635 20.7609 94.4057 21.9283L93.7844 24.7492L93.7811 24.746Z" fill="#4C9C2E"/>
<path d="M98.4333 24.5445C97.9607 24.73 97.4782 24.842 97.0122 24.842C95.6571 24.842 94.8111 23.9688 95.1052 22.6319C95.3961 21.3206 96.5264 20.4219 97.8913 20.4219C98.3738 20.4219 98.8695 20.5306 99.2794 20.7193L98.7803 21.5413C98.473 21.4134 98.1193 21.3046 97.7591 21.3046C96.9857 21.3046 96.3942 21.9059 96.2388 22.6095C96.0736 23.3643 96.4503 23.9656 97.27 23.9656C97.6038 23.9656 97.9706 23.8633 98.3011 23.7545L98.4333 24.5509V24.5445Z" fill="#4C9C2E"/>
<path d="M102.595 22.2058C102.704 21.6717 102.496 21.2559 101.908 21.2559C101.319 21.2559 100.923 21.6973 100.784 22.2058H102.598H102.595ZM103.448 23.0022H100.605C100.533 23.6547 100.923 23.9585 101.574 23.9585C101.934 23.9585 102.393 23.8754 102.74 23.7378L102.902 24.5246C102.383 24.7197 101.838 24.8381 101.319 24.8381C99.9642 24.8381 99.2636 23.9489 99.5511 22.6376C99.8221 21.4095 100.738 20.418 102.083 20.418C103.349 20.418 103.894 21.2655 103.633 22.4425C103.593 22.628 103.514 22.8135 103.448 23.0022Z" fill="#4C9C2E"/>
<path d="M17.6312 15.014C15.179 15.9031 12.8787 16.1974 10.8991 16.1974C8.91941 16.1974 7.23059 15.8967 6.06064 15.5961C5.47566 15.4458 5.01628 15.2954 4.70561 15.1835C4.55028 15.1291 4.4313 15.0811 4.35198 15.0492C4.31232 15.0332 4.28258 15.0204 4.26605 15.014C4.25944 15.014 4.25614 15.0108 4.25283 15.0076C4.24622 15.0076 4.24292 15.0044 4.23961 15.0012C4.23961 15.0012 4.23631 15.0012 4.23301 14.998C4.23301 14.998 4.2297 14.998 4.22309 14.9948C4.22309 14.9948 4.21648 14.9948 4.20987 14.9916C4.21979 14.9948 4.23301 14.998 4.24292 15.0044H4.24623C4.2264 14.9948 4.20326 14.9884 4.18343 14.982H4.16691C4.16691 14.982 4.15369 14.982 4.14047 14.9788H4.0975C4.00827 14.9788 3.91904 15.014 3.85624 15.0747C3.79345 15.1355 3.75709 15.2219 3.75709 15.3082C3.75709 15.3306 3.75709 15.3626 3.77031 15.401C3.78023 15.433 3.79014 15.4553 3.80336 15.4745C3.81658 15.5001 3.83641 15.5225 3.85955 15.5449C3.86946 15.5545 3.87607 15.5577 3.87938 15.5641C3.88929 15.5705 3.89921 15.5801 3.90912 15.5833C3.91573 15.5833 3.91904 15.5897 3.92234 15.5929C3.93336 15.5993 3.93997 15.6025 3.94217 15.6025C3.94217 15.6025 3.962 15.6121 3.97852 15.6185C3.98513 15.6185 3.98844 15.6249 3.99505 15.6281C4.00496 15.6345 4.01818 15.6377 4.0281 15.6409C4.51723 15.8455 7.15127 16.8658 10.8958 16.8658C12.9481 16.8658 15.331 16.5588 17.8659 15.6409C18.0411 15.5769 18.1303 15.3882 18.0642 15.2155C17.9981 15.046 17.8031 14.9596 17.6246 15.0236M17.2115 10.8402C16.2927 10.8402 15.5458 11.3327 15.5458 11.9404C15.5458 12.5481 16.2927 13.0406 17.2115 13.0406C18.1303 13.0406 18.8772 12.5481 18.8772 11.9404C18.8772 11.3327 18.1303 10.8402 17.2115 10.8402ZM6.24572 11.982C6.24572 11.3743 5.4988 10.8817 4.58002 10.8817C3.66125 10.8817 2.91433 11.3743 2.91433 11.982C2.91433 12.5896 3.66125 13.0822 4.58002 13.0822C5.4988 13.0822 6.24572 12.5896 6.24572 11.982ZM13.2225 9.23139C13.2654 9.24739 13.3084 9.25698 13.3546 9.25698C13.4968 9.25698 13.619 9.17702 13.6719 9.04909C13.9 8.51497 14.5048 8.15675 15.179 8.15675C15.8532 8.15675 16.458 8.51497 16.686 9.04909C16.7389 9.17382 16.8645 9.25698 17.0033 9.25698C17.0463 9.25698 17.0925 9.25058 17.1355 9.23139C17.2214 9.19621 17.2875 9.13225 17.3206 9.05229C17.3569 8.96913 17.3569 8.87958 17.3206 8.79642C16.9868 8.01603 16.1275 7.4915 15.1757 7.4915C14.2238 7.4915 13.3646 8.01603 13.0308 8.79642C12.9944 8.87958 12.9977 8.96913 13.0308 9.05229C13.0671 9.13544 13.1332 9.19941 13.2158 9.23139M21.2568 17.0801V19.3957C21.2568 19.6835 21.0155 19.917 20.7181 19.917H18.8012C18.5037 19.917 18.2625 19.6835 18.2625 19.3957V18.2699C16.8116 18.4778 14.0487 18.6345 10.8991 18.6473C7.74946 18.6345 4.98653 18.4778 3.53566 18.2699V19.3957C3.53566 19.6835 3.2944 19.917 2.99696 19.917H1.07348C0.776035 19.917 0.534774 19.6835 0.534774 19.3957V17.0801C-0.912791 11.7325 0.961112 10.2804 1.65845 9.93822C2.03522 9.75272 2.4252 9.55443 2.67307 9.31775C2.36902 9.27297 1.83031 9.19621 1.47007 9.17063C0.941282 9.13225 1.12966 8.29108 1.3577 8.0736C1.58575 7.85291 2.30292 7.85291 2.56731 7.85291C2.83171 7.85291 2.94408 7.88809 3.05975 8.03522C3.10602 8.09599 3.16551 8.18554 3.225 8.29748C3.72735 7.05013 4.47757 5.47975 5.66735 5.29105C6.95297 5.08955 9.08136 5 10.8958 5C12.7102 5 14.8386 5.08955 16.1275 5.29105C17.3173 5.47975 18.0708 7.05013 18.5698 8.29748C18.6293 8.18874 18.6888 8.09599 18.7351 8.03522C18.8475 7.88809 18.9631 7.85291 19.2275 7.85291C19.4919 7.85291 20.2091 7.85291 20.4371 8.0736C20.6652 8.29428 20.8536 9.13544 20.3248 9.17063C19.9612 9.19621 19.4258 9.27297 19.1218 9.31775C19.3729 9.55762 19.7596 9.75592 20.1364 9.93822C20.8337 10.2804 22.7076 11.7325 21.2601 17.0801" fill="#4C9C2E"/>
</svg>
